<mxfile host="drawio.corp.amazon.com" modified="2025-08-27T12:08:23.822Z" agent="Mozilla/5.0 (Macintosh; Intel Mac OS X 10_15_7) AppleWebKit/537.36 (KHTML, like Gecko) Chrome/139.0.0.0 Safari/537.36" etag="van92gHT3o5KFH5YE4f-" version="21.7.4" type="device">
  <diagram name="IoT-SAP-Architecture" id="architecture">
    <mxGraphModel dx="1857" dy="763" grid="1" gridSize="10" guides="1" tooltips="1" connect="1" arrows="1" fold="1" page="1" pageScale="1" pageWidth="1169" pageHeight="827" math="0" shadow="0">
      <root>
        <mxCell id="0" />
        <mxCell id="1" parent="0" />
        <mxCell id="MdHSkgKFLFM1V3GT_CCv-1" style="edgeStyle=orthogonalEdgeStyle;rounded=0;orthogonalLoop=1;jettySize=auto;html=1;strokeColor=#9c9c9c;" edge="1" parent="1">
          <mxGeometry relative="1" as="geometry">
            <mxPoint x="889" y="140" as="sourcePoint" />
            <mxPoint x="889" y="300" as="targetPoint" />
          </mxGeometry>
        </mxCell>
        <mxCell id="iot-device" value="&lt;br&gt;&lt;br&gt;IoT Device/Simulator&lt;br&gt;Temperature Sensor" style="rounded=1;whiteSpace=wrap;html=1;fillColor=#f5f5f5;strokeColor=#666666;fontColor=#333333;" parent="1" vertex="1">
          <mxGeometry x="70" y="115" width="120" height="90" as="geometry" />
        </mxCell>
        <mxCell id="iot-core" value="AWS IoT Core&lt;br&gt;&quot;dt/sap-iot-thing&quot;" style="rounded=1;whiteSpace=wrap;html=1;fillColor=none;strokeColor=none;" parent="1" vertex="1">
          <mxGeometry x="239" y="162" width="120" height="60" as="geometry" />
        </mxCell>
        <mxCell id="iot-rule" value="IoT Rule" style="rounded=1;whiteSpace=wrap;html=1;fillColor=none;strokeColor=none;" parent="1" vertex="1">
          <mxGeometry x="444" y="162" width="120" height="60" as="geometry" />
        </mxCell>
        <mxCell id="cw-metrics" value="CloudWatch Metrics&lt;br&gt;&quot;sap-iot-temperature&quot;" style="rounded=1;whiteSpace=wrap;html=1;fillColor=none;strokeColor=none;" parent="1" vertex="1">
          <mxGeometry x="639" y="163" width="120" height="60" as="geometry" />
        </mxCell>
        <mxCell id="cw-alarm-high" value="CloudWatch Alarm&#xa;temperature_high&#xa;1-min period" style="rounded=1;whiteSpace=wrap;html=1;fillColor=none;strokeColor=none;" parent="1" vertex="1">
          <mxGeometry x="849" y="80" width="120" height="60" as="geometry" />
        </mxCell>
        <mxCell id="cw-alarm-low" value="CloudWatch Alarm&#xa;temperature_low&#xa;1-min period" style="rounded=1;whiteSpace=wrap;html=1;fillColor=none;strokeColor=none;" parent="1" vertex="1">
          <mxGeometry x="849" y="160" width="120" height="60" as="geometry" />
        </mxCell>
        <mxCell id="sns" value="SNS Topic&#xa;Email Notifications" style="rounded=1;whiteSpace=wrap;html=1;fillColor=none;strokeColor=none;" parent="1" vertex="1">
          <mxGeometry x="1049" y="120" width="120" height="60" as="geometry" />
        </mxCell>
        <mxCell id="eventbridge" value="EventBridge Rule&lt;br&gt;&quot;sap-iot-temperature-alarm-rule&quot;" style="rounded=1;whiteSpace=wrap;html=1;fillColor=none;strokeColor=none;" parent="1" vertex="1">
          <mxGeometry x="849" y="300" width="120" height="60" as="geometry" />
        </mxCell>
        <mxCell id="secrets" value="Secrets Manager&#xa;SAP Credentials" style="rounded=1;whiteSpace=wrap;html=1;fillColor=none;strokeColor=none;" parent="1" vertex="1">
          <mxGeometry x="569" y="550" width="120" height="60" as="geometry" />
        </mxCell>
        <mxCell id="sap-system" value="SAP System&#xa;OData Service&#xa;CSRF + HTTP POST" style="rounded=1;whiteSpace=wrap;html=1;fillColor=none;strokeColor=none;" parent="1" vertex="1">
          <mxGeometry x="849" y="380" width="120" height="80" as="geometry" />
        </mxCell>
        <mxCell id="conn1" style="edgeStyle=orthogonalEdgeStyle;rounded=0;orthogonalLoop=1;jettySize=auto;html=1;" parent="1" source="iot-device" edge="1">
          <mxGeometry relative="1" as="geometry">
            <mxPoint x="270" y="147" as="targetPoint" />
          </mxGeometry>
        </mxCell>
        <mxCell id="conn2" style="edgeStyle=orthogonalEdgeStyle;rounded=0;orthogonalLoop=1;jettySize=auto;html=1;" parent="1" edge="1">
          <mxGeometry relative="1" as="geometry">
            <mxPoint x="359" y="147" as="sourcePoint" />
            <mxPoint x="439" y="147" as="targetPoint" />
          </mxGeometry>
        </mxCell>
        <mxCell id="conn3" style="edgeStyle=orthogonalEdgeStyle;rounded=0;orthogonalLoop=1;jettySize=auto;html=1;" parent="1" edge="1">
          <mxGeometry relative="1" as="geometry">
            <mxPoint x="559" y="148" as="sourcePoint" />
            <mxPoint x="639" y="148" as="targetPoint" />
            <Array as="points">
              <mxPoint x="600" y="148" />
              <mxPoint x="600" y="148" />
            </Array>
          </mxGeometry>
        </mxCell>
        <mxCell id="conn6" style="edgeStyle=orthogonalEdgeStyle;rounded=0;orthogonalLoop=1;jettySize=auto;html=1;" parent="1" target="cw-alarm-high" edge="1">
          <mxGeometry relative="1" as="geometry">
            <mxPoint x="730" y="144" as="sourcePoint" />
            <Array as="points">
              <mxPoint x="790" y="144" />
              <mxPoint x="790" y="110" />
            </Array>
          </mxGeometry>
        </mxCell>
        <mxCell id="conn7" style="edgeStyle=orthogonalEdgeStyle;rounded=0;orthogonalLoop=1;jettySize=auto;html=1;" parent="1" target="cw-alarm-low" edge="1">
          <mxGeometry relative="1" as="geometry">
            <mxPoint x="730" y="144" as="sourcePoint" />
            <Array as="points">
              <mxPoint x="790" y="144" />
              <mxPoint x="790" y="190" />
            </Array>
          </mxGeometry>
        </mxCell>
        <mxCell id="conn8" style="edgeStyle=orthogonalEdgeStyle;rounded=0;orthogonalLoop=1;jettySize=auto;html=1;" parent="1" source="cw-alarm-high" target="sns" edge="1">
          <mxGeometry relative="1" as="geometry" />
        </mxCell>
        <mxCell id="conn9" style="edgeStyle=orthogonalEdgeStyle;rounded=0;orthogonalLoop=1;jettySize=auto;html=1;" parent="1" source="cw-alarm-low" target="sns" edge="1">
          <mxGeometry relative="1" as="geometry" />
        </mxCell>
        <mxCell id="conn10" style="edgeStyle=orthogonalEdgeStyle;rounded=0;orthogonalLoop=1;jettySize=auto;html=1;" parent="1" target="eventbridge" edge="1">
          <mxGeometry relative="1" as="geometry">
            <mxPoint x="909" y="220" as="sourcePoint" />
          </mxGeometry>
        </mxCell>
        <mxCell id="conn11" style="edgeStyle=orthogonalEdgeStyle;rounded=0;orthogonalLoop=1;jettySize=auto;html=1;" parent="1" source="cw-alarm-low" target="eventbridge" edge="1">
          <mxGeometry relative="1" as="geometry" />
        </mxCell>
        <mxCell id="conn12" style="edgeStyle=orthogonalEdgeStyle;rounded=0;orthogonalLoop=1;jettySize=auto;html=1;" parent="1" source="eventbridge" target="MdHSkgKFLFM1V3GT_CCv-4" edge="1">
          <mxGeometry relative="1" as="geometry" />
        </mxCell>
        <mxCell id="conn15" style="edgeStyle=orthogonalEdgeStyle;rounded=0;orthogonalLoop=1;jettySize=auto;html=1;" parent="1" source="sap-lambda" target="secrets" edge="1">
          <mxGeometry relative="1" as="geometry" />
        </mxCell>
        <mxCell id="conn16" style="edgeStyle=orthogonalEdgeStyle;rounded=0;orthogonalLoop=1;jettySize=auto;html=1;" parent="1" target="sap-system" edge="1">
          <mxGeometry relative="1" as="geometry">
            <mxPoint x="670" y="424" as="sourcePoint" />
            <Array as="points">
              <mxPoint x="800" y="424" />
              <mxPoint x="800" y="424" />
            </Array>
          </mxGeometry>
        </mxCell>
        <mxCell id="MdHSkgKFLFM1V3GT_CCv-3" style="edgeStyle=orthogonalEdgeStyle;rounded=0;orthogonalLoop=1;jettySize=auto;html=1;" edge="1" parent="1" target="sns">
          <mxGeometry relative="1" as="geometry">
            <mxPoint x="670" y="424" as="sourcePoint" />
            <mxPoint x="1109" y="290" as="targetPoint" />
            <Array as="points">
              <mxPoint x="730" y="424" />
              <mxPoint x="730" y="486" />
              <mxPoint x="1109" y="486" />
            </Array>
          </mxGeometry>
        </mxCell>
        <mxCell id="MdHSkgKFLFM1V3GT_CCv-4" value="AWS Step Functions workflow" style="points=[[0,0],[0.25,0],[0.5,0],[0.75,0],[1,0],[1,0.25],[1,0.5],[1,0.75],[1,1],[0.75,1],[0.5,1],[0.25,1],[0,1],[0,0.75],[0,0.5],[0,0.25]];outlineConnect=0;gradientColor=none;html=1;whiteSpace=wrap;fontSize=12;fontStyle=0;container=1;pointerEvents=0;collapsible=0;recursiveResize=0;shape=mxgraph.aws4.group;grIcon=mxgraph.aws4.group_aws_step_functions_workflow;strokeColor=#CD2264;fillColor=none;verticalAlign=top;align=left;spacingLeft=30;fontColor=#CD2264;dashed=0;" vertex="1" parent="1">
          <mxGeometry x="219" y="365" width="490" height="155" as="geometry" />
        </mxCell>
        <mxCell id="sap-lambda" value="Lambda Function&lt;br&gt;&quot;sap-iot-sap-odp-integration&quot;" style="rounded=1;whiteSpace=wrap;html=1;fillColor=none;strokeColor=none;" parent="MdHSkgKFLFM1V3GT_CCv-4" vertex="1">
          <mxGeometry x="350" y="72.5" width="120" height="65" as="geometry" />
        </mxCell>
        <mxCell id="read-db-task" value="Read DynamoDB&lt;br&gt;&quot;sap-iot-devices&quot;" style="rounded=1;whiteSpace=wrap;html=1;fillColor=none;strokeColor=none;" parent="MdHSkgKFLFM1V3GT_CCv-4" vertex="1">
          <mxGeometry x="100" y="75" width="120" height="60" as="geometry" />
        </mxCell>
        <mxCell id="conn14" style="edgeStyle=orthogonalEdgeStyle;rounded=0;orthogonalLoop=1;jettySize=auto;html=1;" parent="MdHSkgKFLFM1V3GT_CCv-4" edge="1">
          <mxGeometry relative="1" as="geometry">
            <mxPoint x="220" y="58.5" as="sourcePoint" />
            <mxPoint x="350" y="58.5" as="targetPoint" />
            <Array as="points">
              <mxPoint x="261" y="58.5" />
              <mxPoint x="261" y="58.5" />
            </Array>
          </mxGeometry>
        </mxCell>
        <mxCell id="MdHSkgKFLFM1V3GT_CCv-14" value="" style="sketch=0;points=[[0,0,0],[0.25,0,0],[0.5,0,0],[0.75,0,0],[1,0,0],[0,1,0],[0.25,1,0],[0.5,1,0],[0.75,1,0],[1,1,0],[0,0.25,0],[0,0.5,0],[0,0.75,0],[1,0.25,0],[1,0.5,0],[1,0.75,0]];outlineConnect=0;fontColor=#232F3E;fillColor=#ED7100;strokeColor=#ffffff;dashed=0;verticalLabelPosition=bottom;verticalAlign=top;align=center;html=1;fontSize=12;fontStyle=0;aspect=fixed;shape=mxgraph.aws4.resourceIcon;resIcon=mxgraph.aws4.lambda;" vertex="1" parent="MdHSkgKFLFM1V3GT_CCv-4">
          <mxGeometry x="390" y="39" width="40" height="40" as="geometry" />
        </mxCell>
        <mxCell id="MdHSkgKFLFM1V3GT_CCv-15" value="" style="sketch=0;points=[[0,0,0],[0.25,0,0],[0.5,0,0],[0.75,0,0],[1,0,0],[0,1,0],[0.25,1,0],[0.5,1,0],[0.75,1,0],[1,1,0],[0,0.25,0],[0,0.5,0],[0,0.75,0],[1,0.25,0],[1,0.5,0],[1,0.75,0]];outlineConnect=0;fontColor=#232F3E;fillColor=#C925D1;strokeColor=#ffffff;dashed=0;verticalLabelPosition=bottom;verticalAlign=top;align=center;html=1;fontSize=12;fontStyle=0;aspect=fixed;shape=mxgraph.aws4.resourceIcon;resIcon=mxgraph.aws4.dynamodb;" vertex="1" parent="MdHSkgKFLFM1V3GT_CCv-4">
          <mxGeometry x="140" y="39" width="40" height="40" as="geometry" />
        </mxCell>
        <mxCell id="MdHSkgKFLFM1V3GT_CCv-5" value="" style="sketch=0;pointerEvents=1;shadow=0;dashed=0;html=1;strokeColor=none;fillColor=#505050;labelPosition=center;verticalLabelPosition=bottom;verticalAlign=top;outlineConnect=0;align=center;shape=mxgraph.office.concepts.application_generic;" vertex="1" parent="1">
          <mxGeometry x="110" y="122" width="40" height="30" as="geometry" />
        </mxCell>
        <mxCell id="MdHSkgKFLFM1V3GT_CCv-6" value="" style="sketch=0;points=[[0,0,0],[0.25,0,0],[0.5,0,0],[0.75,0,0],[1,0,0],[0,1,0],[0.25,1,0],[0.5,1,0],[0.75,1,0],[1,1,0],[0,0.25,0],[0,0.5,0],[0,0.75,0],[1,0.25,0],[1,0.5,0],[1,0.75,0]];outlineConnect=0;fontColor=#232F3E;fillColor=#7AA116;strokeColor=#ffffff;dashed=0;verticalLabelPosition=bottom;verticalAlign=top;align=center;html=1;fontSize=12;fontStyle=0;aspect=fixed;shape=mxgraph.aws4.resourceIcon;resIcon=mxgraph.aws4.iot_core;" vertex="1" parent="1">
          <mxGeometry x="279" y="126.6" width="40" height="40" as="geometry" />
        </mxCell>
        <mxCell id="MdHSkgKFLFM1V3GT_CCv-7" value="" style="sketch=0;outlineConnect=0;fontColor=#232F3E;gradientColor=none;fillColor=#7AA116;strokeColor=none;dashed=0;verticalLabelPosition=bottom;verticalAlign=top;align=center;html=1;fontSize=12;fontStyle=0;aspect=fixed;pointerEvents=1;shape=mxgraph.aws4.rule;" vertex="1" parent="1">
          <mxGeometry x="490" y="122" width="29" height="49.19" as="geometry" />
        </mxCell>
        <mxCell id="MdHSkgKFLFM1V3GT_CCv-8" value="" style="sketch=0;points=[[0,0,0],[0.25,0,0],[0.5,0,0],[0.75,0,0],[1,0,0],[0,1,0],[0.25,1,0],[0.5,1,0],[0.75,1,0],[1,1,0],[0,0.25,0],[0,0.5,0],[0,0.75,0],[1,0.25,0],[1,0.5,0],[1,0.75,0]];points=[[0,0,0],[0.25,0,0],[0.5,0,0],[0.75,0,0],[1,0,0],[0,1,0],[0.25,1,0],[0.5,1,0],[0.75,1,0],[1,1,0],[0,0.25,0],[0,0.5,0],[0,0.75,0],[1,0.25,0],[1,0.5,0],[1,0.75,0]];outlineConnect=0;fontColor=#232F3E;fillColor=#E7157B;strokeColor=#ffffff;dashed=0;verticalLabelPosition=bottom;verticalAlign=top;align=center;html=1;fontSize=12;fontStyle=0;aspect=fixed;shape=mxgraph.aws4.resourceIcon;resIcon=mxgraph.aws4.cloudwatch_2;" vertex="1" parent="1">
          <mxGeometry x="677" y="123" width="44" height="44" as="geometry" />
        </mxCell>
        <mxCell id="MdHSkgKFLFM1V3GT_CCv-9" value="" style="sketch=0;outlineConnect=0;fontColor=#232F3E;gradientColor=none;fillColor=#E7157B;strokeColor=none;dashed=0;verticalLabelPosition=bottom;verticalAlign=top;align=center;html=1;fontSize=12;fontStyle=0;aspect=fixed;pointerEvents=1;shape=mxgraph.aws4.event_event_based;" vertex="1" parent="1">
          <mxGeometry x="840" y="230" width="40" height="40" as="geometry" />
        </mxCell>
        <mxCell id="MdHSkgKFLFM1V3GT_CCv-10" value="" style="sketch=0;outlineConnect=0;fontColor=#232F3E;gradientColor=none;fillColor=#E7157B;strokeColor=none;dashed=0;verticalLabelPosition=bottom;verticalAlign=top;align=center;html=1;fontSize=12;fontStyle=0;aspect=fixed;pointerEvents=1;shape=mxgraph.aws4.alarm;" vertex="1" parent="1">
          <mxGeometry x="889" y="40" width="40" height="40" as="geometry" />
        </mxCell>
        <mxCell id="MdHSkgKFLFM1V3GT_CCv-12" value="" style="sketch=0;points=[[0,0,0],[0.25,0,0],[0.5,0,0],[0.75,0,0],[1,0,0],[0,1,0],[0.25,1,0],[0.5,1,0],[0.75,1,0],[1,1,0],[0,0.25,0],[0,0.5,0],[0,0.75,0],[1,0.25,0],[1,0.5,0],[1,0.75,0]];outlineConnect=0;fontColor=#232F3E;fillColor=#E7157B;strokeColor=#ffffff;dashed=0;verticalLabelPosition=bottom;verticalAlign=top;align=center;html=1;fontSize=12;fontStyle=0;aspect=fixed;shape=mxgraph.aws4.resourceIcon;resIcon=mxgraph.aws4.eventbridge;" vertex="1" parent="1">
          <mxGeometry x="981.6" y="310" width="40" height="40" as="geometry" />
        </mxCell>
        <mxCell id="MdHSkgKFLFM1V3GT_CCv-13" value="" style="sketch=0;points=[[0,0,0],[0.25,0,0],[0.5,0,0],[0.75,0,0],[1,0,0],[0,1,0],[0.25,1,0],[0.5,1,0],[0.75,1,0],[1,1,0],[0,0.25,0],[0,0.5,0],[0,0.75,0],[1,0.25,0],[1,0.5,0],[1,0.75,0]];outlineConnect=0;fontColor=#232F3E;fillColor=#E7157B;strokeColor=#ffffff;dashed=0;verticalLabelPosition=bottom;verticalAlign=top;align=center;html=1;fontSize=12;fontStyle=0;aspect=fixed;shape=mxgraph.aws4.resourceIcon;resIcon=mxgraph.aws4.sns;" vertex="1" parent="1">
          <mxGeometry x="1089" y="89" width="40" height="40" as="geometry" />
        </mxCell>
        <mxCell id="MdHSkgKFLFM1V3GT_CCv-16" value="" style="sketch=0;points=[[0,0,0],[0.25,0,0],[0.5,0,0],[0.75,0,0],[1,0,0],[0,1,0],[0.25,1,0],[0.5,1,0],[0.75,1,0],[1,1,0],[0,0.25,0],[0,0.5,0],[0,0.75,0],[1,0.25,0],[1,0.5,0],[1,0.75,0]];outlineConnect=0;fontColor=#232F3E;fillColor=#DD344C;strokeColor=#ffffff;dashed=0;verticalLabelPosition=bottom;verticalAlign=top;align=center;html=1;fontSize=12;fontStyle=0;aspect=fixed;shape=mxgraph.aws4.resourceIcon;resIcon=mxgraph.aws4.secrets_manager;" vertex="1" parent="1">
          <mxGeometry x="529" y="560" width="40" height="40" as="geometry" />
        </mxCell>
        <mxCell id="MdHSkgKFLFM1V3GT_CCv-17" value="" style="image;points=[];aspect=fixed;html=1;align=center;shadow=0;dashed=0;image=img/lib/allied_telesis/computer_and_terminals/Server_Desktop.svg;" vertex="1" parent="1">
          <mxGeometry x="979" y="393" width="42.599999999999994" height="54" as="geometry" />
        </mxCell>
        <mxCell id="MdHSkgKFLFM1V3GT_CCv-18" value="AWS Cloud" style="points=[[0,0],[0.25,0],[0.5,0],[0.75,0],[1,0],[1,0.25],[1,0.5],[1,0.75],[1,1],[0.75,1],[0.5,1],[0.25,1],[0,1],[0,0.75],[0,0.5],[0,0.25]];outlineConnect=0;gradientColor=none;html=1;whiteSpace=wrap;fontSize=12;fontStyle=0;container=1;pointerEvents=0;collapsible=0;recursiveResize=0;shape=mxgraph.aws4.group;grIcon=mxgraph.aws4.group_aws_cloud_alt;strokeColor=#232F3E;fillColor=none;verticalAlign=top;align=left;spacingLeft=30;fontColor=#232F3E;dashed=0;" vertex="1" parent="1">
          <mxGeometry x="30" y="20" width="1150" height="600" as="geometry" />
        </mxCell>
      </root>
    </mxGraphModel>
  </diagram>
</mxfile>
